<?xml version="1.0" encoding="UTF-8" standalone="no"?>
<svg
   id="svg4306"
   width="22"
   height="22"
   version="1.1"
   style="enable-background:new"
   sodipodi:docname="close.svg"
   inkscape:version="1.4.2 (unknown)"
   xmlns:inkscape="http://www.inkscape.org/namespaces/inkscape"
   xmlns:sodipodi="http://sodipodi.sourceforge.net/DTD/sodipodi-0.dtd"
   xmlns:xlink="http://www.w3.org/1999/xlink"
   xmlns="http://www.w3.org/2000/svg"
   xmlns:svg="http://www.w3.org/2000/svg"
   xmlns:rdf="http://www.w3.org/1999/02/22-rdf-syntax-ns#"
   xmlns:cc="http://creativecommons.org/ns#"
   xmlns:dc="http://purl.org/dc/elements/1.1/">
  <g
     id="pressed-inactive-center">
    <rect
       y="22"
       x="0"
       height="22"
       width="22"
       id="rect953-2-7-6-5"
       style="opacity:0.00100002;fill:#050505;fill-opacity:1;stroke-width:1.001" />
    <path
       id="path839-3-36-3"
       style="fill:#2c3c53;fill-opacity:1;stroke-width:1.125;enable-background:new"
       d="M 11,24 C 6.02953,24 2,28.029441 2,32.999998 2,37.970557 6.02953,42 11,42 15.97048,42 20,37.970557 20,32.999998 20,28.029441 15.97048,24 11,24 Z m 0,1.125 c 4.34919,0 7.875,3.525746 7.875,7.874998 C 18.875,37.349232 15.34919,40.875 11,40.875 6.6508,40.875 3.125,37.349232 3.125,32.999998 3.125,28.650746 6.6508,25.125 11,25.125 Z m 0,0 z"
       sodipodi:nodetypes="ssssssssssccccc" />
    <rect
       style="fill:#bf616a;fill-opacity:1;stroke:none;stroke-width:0.39374;enable-background:new"
       id="center-3-35-5-7-6"
       width="15.749992"
       height="15.749992"
       x="3.125"
       y="25.125"
       ry="7.8749838"
       rx="7.8749962" />
    <path
       d="m 14.729675,35.424267 -2.424594,-2.424495 2.423826,-2.423925 c 0.360536,-0.36064 0.360536,-0.945073 0,-1.305561 -0.360603,-0.360335 -0.945094,-0.360335 -1.305188,0 l -2.424015,2.42412 -2.4240164,-2.42412 c -0.3603189,-0.360335 -0.9447383,-0.360488 -1.3053497,1.48e-4 -0.3604,0.360411 -0.3604,0.944919 1.575e-4,1.305409 l 2.4240026,2.423925 -2.4242001,2.424498 c -0.3603991,0.360409 -0.3603991,0.944986 0,1.305326 0.1803386,0.180242 0.4164416,0.270404 0.6527374,0.270404 0.2363068,0 0.4724099,-0.09013 0.6527483,-0.270404 l 2.4242054,-2.424497 2.424397,2.424497 c 0.180271,0.180242 0.416446,0.270404 0.652607,0.270404 0.236164,0 0.472562,-0.09013 0.652607,-0.270404 0.360525,-0.36034 0.360525,-0.944917 0,-1.305326 z"
       id="path3490-3-3"
       style="fill:#ffffff;fill-opacity:1;stroke-width:0.0213281;enable-background:new" />
  </g>
  <g
     id="hover-center">
    <rect
       style="opacity:0.00100002;fill:#050505;fill-opacity:1;stroke-width:1.001"
       id="rect953-2-7-2"
       width="22"
       height="22"
       x="-22"
       y="0" />
    <path
       id="path839-3-3"
       style="fill:#2c3c53;fill-opacity:1;stroke-width:1.125;enable-background:new"
       d="m -11,2 c -4.97047,0 -9,4.0294414 -9,8.999998 C -20,15.970557 -15.97047,20 -11,20 -6.02952,20 -2,15.970557 -2,10.999998 -2,6.0294414 -6.02952,2 -11,2 Z m 0,1.1249999 c 4.34919,0 7.875,3.5257465 7.875,7.8749981 0,4.349234 -3.52581,7.875002 -7.875,7.875002 -4.3492,0 -7.875,-3.525768 -7.875,-7.875002 0,-4.3492516 3.5258,-7.8749981 7.875,-7.8749981 z m 0,0 z"
       sodipodi:nodetypes="ssssssssssccccc" />
    <rect
       style="fill:#bf616a;fill-opacity:0.7;stroke:none;stroke-width:0.39374;enable-background:new"
       id="center-3-35-5-6"
       width="15.749992"
       height="15.749992"
       x="-18.875"
       y="3.125001"
       ry="7.8749838"
       rx="7.8749962" />
    <path
       d="m -7.270323,13.424272 -2.4245932,-2.424499 2.4238233,-2.4239285 c 0.360537,-0.3606401 0.360537,-0.945068 0,-1.3055556 -0.360601,-0.3603373 -0.945091,-0.3603373 -1.305185,0 l -2.4240181,2.4241167 -2.424016,-2.4241167 c -0.360319,-0.3603373 -0.944741,-0.3604892 -1.305349,1.459e-4 -0.3604,0.3604137 -0.3604,0.9449178 1.57e-4,1.3054059 l 2.424004,2.4239283 -2.424206,2.4245 c -0.360399,0.360412 -0.360399,0.944985 0,1.305324 0.180341,0.180242 0.416447,0.270404 0.65274,0.270404 0.236305,0 0.472411,-0.09013 0.652752,-0.270404 l 2.424202,-2.424498 2.4243996,2.424498 c 0.1802685,0.180242 0.4164427,0.270404 0.6526045,0.270404 0.2361664,0 0.4725647,-0.09013 0.652609,-0.270404 0.360529,-0.360339 0.360529,-0.944912 0,-1.305324 z"
       id="path3490"
       style="fill:#ffffff;fill-opacity:0.799873;stroke-width:0.0213281" />
  </g>
  <g
     id="inactive-center">
    <rect
       style="opacity:0.00100002;fill:#050505;fill-opacity:1;stroke-width:1.001;enable-background:new"
       id="rect953-2-7-2-75"
       width="22"
       height="22"
       x="-44"
       y="0" />
    <path
       id="path839-3"
       style="fill:#2c3c53;fill-opacity:1;stroke-width:1.125;enable-background:new"
       d="m -33,2 c -4.97047,0 -9,4.0294414 -9,8.999998 C -42,15.970557 -37.97047,20 -33,20 c 4.97048,0 9,-4.029443 9,-9.000002 C -24,6.0294414 -28.02952,2 -33,2 Z m 0,1.1249999 c 4.34919,0 7.875,3.5257465 7.875,7.8749981 0,4.349234 -3.52581,7.875002 -7.875,7.875002 -4.3492,0 -7.875,-3.525768 -7.875,-7.875002 0,-4.3492516 3.5258,-7.8749981 7.875,-7.8749981 z m 0,0 z"
       sodipodi:nodetypes="ssssssssssccccc" />
    <rect
       style="fill:url(#linearGradient2);fill-opacity:1;stroke:none;stroke-width:0.39374"
       id="center-3-35-5"
       width="15.749992"
       height="15.749992"
       x="-40.875"
       y="3.125001"
       ry="7.8749962"
       rx="7.8749962" />
  </g>
  <metadata
     id="metadata40">
    <rdf:RDF>
      <cc:Work
         rdf:about="">
        <dc:format>image/svg+xml</dc:format>
        <dc:type
           rdf:resource="http://purl.org/dc/dcmitype/StillImage" />
      </cc:Work>
    </rdf:RDF>
  </metadata>
  <defs
     id="defs38">
    <linearGradient
       id="linearGradient1"
       inkscape:collect="always">
      <stop
         style="stop-color:#354864;stop-opacity:0.2;"
         offset="0"
         id="stop1" />
      <stop
         style="stop-color:#3d5575;stop-opacity:1;"
         offset="1"
         id="stop2" />
    </linearGradient>
    <linearGradient
       id="linearGradient5"
       inkscape:collect="always">
      <stop
         style="stop-color:#737373;stop-opacity:1;"
         offset="0"
         id="stop4" />
      <stop
         style="stop-color:#ff5555;stop-opacity:0.30000001;"
         offset="1"
         id="stop5" />
    </linearGradient>
    <linearGradient
       inkscape:collect="always"
       xlink:href="#linearGradient5"
       id="linearGradient4"
       x1="17"
       y1="6"
       x2="5"
       y2="17"
       gradientUnits="userSpaceOnUse"
       gradientTransform="translate(-44,22)" />
    <linearGradient
       inkscape:collect="always"
       xlink:href="#linearGradient1"
       id="linearGradient2"
       x1="-39"
       y1="18"
       x2="-27"
       y2="4"
       gradientUnits="userSpaceOnUse" />
  </defs>
  <sodipodi:namedview
     inkscape:document-rotation="0"
     pagecolor="#2c3c53"
     bordercolor="#030303"
     borderopacity="1"
     objecttolerance="10"
     gridtolerance="10"
     guidetolerance="10"
     inkscape:pageopacity="1"
     inkscape:pageshadow="2"
     inkscape:window-width="1920"
     inkscape:window-height="996"
     id="namedview36"
     showgrid="true"
     inkscape:snap-bbox="true"
     inkscape:bbox-nodes="true"
     inkscape:zoom="8"
     inkscape:cx="-22.375"
     inkscape:cy="22.75"
     inkscape:window-x="0"
     inkscape:window-y="0"
     inkscape:window-maximized="1"
     inkscape:current-layer="svg4306"
     inkscape:lockguides="false"
     showguides="false"
     inkscape:pagecheckerboard="true"
     inkscape:showpageshadow="2"
     inkscape:deskcolor="#233043">
    <inkscape:grid
       type="xygrid"
       id="grid865"
       originx="-44"
       originy="0"
       spacingy="1"
       spacingx="1"
       units="px"
       visible="true" />
  </sodipodi:namedview>
  <style
     type="text/css"
     id="current-color-scheme" />
  <g
     id="g1546"
     transform="translate(-44)" />
  <g
     id="active-center">
    <rect
       style="opacity:0.00100002;fill:#050505;fill-opacity:1;stroke-width:1.001"
       id="rect953-2"
       width="22"
       height="22"
       x="-44"
       y="22" />
    <path
       id="path839-3-36"
       style="fill:#2c3c53;fill-opacity:1;stroke-width:1.125;enable-background:new"
       d="m -33.1,24 c -4.97047,0 -9,4.029441 -9,8.999998 0,4.970559 4.02953,9.000002 9,9.000002 4.97048,0 9,-4.029443 9,-9.000002 C -24.1,28.029441 -28.12952,24 -33.1,24 Z m 0,1.125 c 4.34919,0 7.875,3.525746 7.875,7.874998 0,4.349234 -3.52581,7.875002 -7.875,7.875002 -4.3492,0 -7.875,-3.525768 -7.875,-7.875002 0,-4.349252 3.5258,-7.874998 7.875,-7.874998 z m 0,0 z"
       sodipodi:nodetypes="ssssssssssccccc" />
    <rect
       style="fill:url(#linearGradient4);stroke:none;stroke-width:0.39374;enable-background:new"
       id="center-3-35-5-7"
       width="15.749992"
       height="15.749992"
       x="-40.975002"
       y="25.125"
       ry="7.8749962"
       rx="7.8749962" />
  </g>
  <g
     id="pressed-center">
    <rect
       style="opacity:0.00100002;fill:#050505;fill-opacity:1;stroke-width:1.001"
       id="rect953-2-7-6"
       width="22"
       height="22"
       x="0"
       y="0" />
    <path
       id="path839-3-3-3"
       style="fill:#2c3c53;fill-opacity:1;stroke-width:1.125;enable-background:new"
       d="M 11,2 C 6.02953,2 2,6.0294414 2,10.999998 2,15.970557 6.02953,20 11,20 15.97048,20 20,15.970557 20,10.999998 20,6.0294414 15.97048,2 11,2 Z m 0,1.1249999 c 4.34919,0 7.875,3.5257465 7.875,7.8749981 0,4.349234 -3.52581,7.875002 -7.875,7.875002 -4.3492,0 -7.875,-3.525768 -7.875,-7.875002 0,-4.3492516 3.5258,-7.8749981 7.875,-7.8749981 z m 0,0 z"
       sodipodi:nodetypes="ssssssssssccccc" />
    <rect
       style="fill:#bf616a;fill-opacity:1;stroke:none;stroke-width:0.39374;enable-background:new"
       id="center-3-35-5-6-5"
       width="15.749992"
       height="15.749992"
       x="3.125"
       y="3.1250014"
       ry="7.8749838"
       rx="7.8749962" />
    <path
       d="m 14.72968,13.424274 -2.424596,-2.424498 2.423829,-2.4239289 c 0.360535,-0.36064 0.360535,-0.9450681 0,-1.3055556 -0.360605,-0.3603371 -0.945096,-0.3603371 -1.30519,0 L 10.999708,9.6944079 8.5756905,7.2702915 C 8.2153714,6.9099544 7.6309519,6.9098024 7.2703404,7.2704374 c -0.3604,0.3604136 -0.3604,0.9449177 1.575e-4,1.3054058 l 2.4240035,2.4239288 -2.424201,2.424499 c -0.360399,0.360407 -0.360399,0.944985 0,1.305325 C 7.4506389,14.909838 7.6867422,15 7.9230382,15 8.1593449,15 8.3954479,14.90987 8.5757865,14.729596 l 2.4242055,-2.424498 2.424398,2.424498 C 13.604662,14.909838 13.840836,15 14.076996,15 c 0.236165,0 0.472563,-0.09013 0.652609,-0.270404 0.360525,-0.36034 0.360525,-0.944918 0,-1.305325 z"
       id="path3490-3"
       style="fill:#ffffff;fill-opacity:1;stroke-width:0.0213281;enable-background:new" />
  </g>
  <g
     id="hover-inactive-center">
    <rect
       y="22"
       x="-22"
       height="22"
       width="22"
       id="rect953-2-7-2-7"
       style="opacity:0.00100002;fill:#050505;fill-opacity:1;stroke-width:1.001" />
    <path
       id="path839-3-36-35"
       style="fill:#2c3c53;fill-opacity:1;stroke-width:1.125;enable-background:new"
       d="M -11.000001,24 C -15.97047,24 -20,28.029441 -20,32.999998 -20,37.970557 -15.97047,42 -11.000001,42 c 4.97048,0 9,-4.029443 9,-9.000002 0,-4.970557 -4.02952,-8.999998 -9,-8.999998 z m 0,1.125 c 4.34919,0 7.875,3.525746 7.875,7.874998 0,4.349234 -3.52581,7.875002 -7.875,7.875002 -4.349199,0 -7.874999,-3.525768 -7.874999,-7.875002 0,-4.349252 3.5258,-7.874998 7.874999,-7.874998 z m 0,0 z"
       sodipodi:nodetypes="ssssssssssccccc" />
    <rect
       style="fill:#bf616a;fill-opacity:0.7;stroke:none;stroke-width:0.39374;enable-background:new"
       id="center-3-35-5-7-62"
       width="15.749992"
       height="15.749992"
       x="-18.875"
       y="25.125"
       ry="7.8749838"
       rx="7.8749962" />
    <path
       d="M -7.2703209,35.424272 -9.694913,32.999776 -7.2710904,30.57585 c 0.3605367,-0.36064 0.3605367,-0.945072 0,-1.30556 -0.3606009,-0.360335 -0.9450906,-0.360335 -1.3051846,0 l -2.424018,2.42412 -2.424014,-2.42412 c -0.360319,-0.360335 -0.944741,-0.360487 -1.305349,1.48e-4 -0.3604,0.360412 -0.3604,0.944919 1.57e-4,1.305408 l 2.424003,2.423926 -2.424205,2.424499 c -0.360399,0.360409 -0.360399,0.944986 0,1.305325 C -14.54936,36.909838 -14.313254,37 -14.076961,37 c 0.236305,0 0.472411,-0.09013 0.652751,-0.270404 l 2.424203,-2.424497 2.4243975,2.424497 C -8.3953409,36.909838 -8.1591667,37 -7.9230052,37 c 0.2361662,0 0.4725643,-0.09013 0.6526089,-0.270404 0.3605288,-0.360339 0.3605288,-0.944916 0,-1.305325 z"
       id="path3490-6"
       style="fill:#ffffff;fill-opacity:0.799873;stroke-width:0.0213281;enable-background:new" />
  </g>
</svg>
